<?xml version="1.0" encoding="UTF-8"?> <svg xmlns="http://www.w3.org/2000/svg" viewBox="0 0 408.98 86.37"><defs><style>.cls-1,.cls-2{fill:none;stroke:#fff;stroke-miterlimit:10;stroke-width:7px;}.cls-1{stroke-linecap:round;}.cls-3{fill:#fff;}</style></defs><title>Asset 1</title><g id="Layer_2" data-name="Layer 2"><g id="Layer_1-2" data-name="Layer 1"><path class="cls-1" d="M68.66,40.58a24.46,24.46,0,0,0-4.9-13.32,24.06,24.06,0,0,0-13.91-9,26.07,26.07,0,0,0-21.78,4.94C16.7,32,14.24,48.1,22.58,59.11s24.32,12.8,35.69,4"></path><path class="cls-1" d="M3.5,46.3A38.26,38.26,0,0,0,9.08,64.8c11.24,18.38,35.6,23.6,54.43,11.66s25-36.52,13.75-54.89S41.65-2,22.83,9.91a42.69,42.69,0,0,0-5.52,4.17"></path><path class="cls-2" d="M50.51,34.54a11.34,11.34,0,1,1-16,1.3,11.35,11.35,0,0,1,16-1.3"></path><path class="cls-3" d="M124.85,45.05c0,14.22-2.79,17.76-15.43,17.76S94.07,59.27,94.07,45.05s2.71-17.82,15.35-17.82S124.85,30.76,124.85,45.05Zm-23.14,0c0,8.91,1,11.12,7.71,11.12s7.71-2.21,7.71-11.12-.94-11.19-7.71-11.19S101.71,36.07,101.71,45.05Z"></path><path class="cls-3" d="M162.13,44.73c0,14.35-2.84,18.08-14.53,18.08a67.65,67.65,0,0,1-8-.38V74.12c0,.7-.32,1-.95,1h-5.81c-.64,0-.95-.31-.95-1V29.63c0-.76.44-1.14,1.2-1.27a75.21,75.21,0,0,1,13.46-1.13C159.29,27.23,162.13,30.89,162.13,44.73ZM139.57,33.86V55.73a64.19,64.19,0,0,0,6.82.38c7.15,0,8.09-2.09,8.09-11.12,0-8.66-.69-11.13-7.71-11.13Z"></path><path class="cls-3" d="M177.8,17.87c.7-.19,1.08.19,1.08.89V27.6h6.25a.89.89,0,0,1,1,.95v4a.91.91,0,0,1-1,1h-6.25V52.82c0,2.78.82,3.35,3.92,3.35h2.78c.76,0,1.07.25,1.07.89v4.17a1,1,0,0,1-1,1.14,29.15,29.15,0,0,1-4.48.44c-4.93,0-10.05-.13-10.05-7.71V33.55h-3.61a.91.91,0,0,1-1-1v-4a.89.89,0,0,1,1-.95h3.61V20.34c0-.64.31-.89.88-1Z"></path><path class="cls-3" d="M200.49,17.56c0,2.78-1.58,4.36-4.55,4.36s-4.61-1.58-4.61-4.36,1.64-4.37,4.61-4.37S200.49,14.77,200.49,17.56Zm-1.71,10a.84.84,0,0,1,.95.95V61.54a.83.83,0,0,1-.95,1H193a.83.83,0,0,1-.94-1v-33a.84.84,0,0,1,.94-.95Z"></path><path class="cls-3" d="M255.54,41.19l-.13,20.35c0,.64-.25,1-.88,1h-5.75c-.64,0-.89-.31-.89-1V43.59c0-9.35-1.45-9.79-6.95-9.79a39.51,39.51,0,0,0-6.32.5,25.61,25.61,0,0,1,.95,7.9l-.13,19.34c0,.7-.25,1-.82,1H228.8a.83.83,0,0,1-.94-1V42.33c0-8.15-1.58-8.47-7-8.47h-5.37V61.54a.84.84,0,0,1-.95,1h-5.75c-.63,0-.88-.31-1-1V29.25c0-.76.32-.89,1-1a63.69,63.69,0,0,1,11.25-1A28.27,28.27,0,0,1,231,29.12a35.19,35.19,0,0,1,10.62-2C252,27.16,255.6,29.25,255.54,41.19Z"></path><path class="cls-3" d="M271.9,17.56c0,2.78-1.58,4.36-4.55,4.36s-4.61-1.58-4.61-4.36,1.64-4.37,4.61-4.37S271.9,14.77,271.9,17.56Zm-1.7,10a.84.84,0,0,1,.95.95V61.54a.84.84,0,0,1-.95,1h-5.75a.83.83,0,0,1-.95-1v-33a.84.84,0,0,1,.95-.95Z"></path><path class="cls-3" d="M309.25,42.2V61.54a.88.88,0,0,1-1,1h-5.69a.83.83,0,0,1-.94-1V43.59c0-9.35-1.46-9.73-7.4-9.73h-7.27V61.54a.83.83,0,0,1-.94,1h-5.82c-.63,0-.88-.31-.88-1V29.25c0-.82.31-.89.88-1a75.54,75.54,0,0,1,14.16-1C306,27.23,309.25,29,309.25,42.2Z"></path><path class="cls-3" d="M345.34,14.21c.69,0,1,.25,1,.94V60.34a1.15,1.15,0,0,1-1.14,1.33,75.91,75.91,0,0,1-13.52,1.14c-12.77,0-15.55-3.6-15.55-17.76s2.78-17.82,14.47-17.82a70.85,70.85,0,0,1,8.09.37V15.15c0-.69.32-.94.95-.94ZM331.75,33.86c-7.08,0-8,2.09-8,11.19,0,8.59.69,11.12,7.83,11.12a57.59,57.59,0,0,0,7.08-.5V33.86Z"></path><path class="cls-3" d="M383.2,44.35v1.9c0,1.2-.38,1.71-2.15,1.71H361c.19,6.7,1.71,8.21,7.84,8.21h10.81a.84.84,0,0,1,.94.95V61a1,1,0,0,1-.88,1.07,77.55,77.55,0,0,1-11.31.7c-12.33,0-15.11-3.54-15.11-17.76s2.78-17.82,15.11-17.82C380.29,27.23,383.07,30.64,383.2,44.35ZM361,42.46h14.47c-.06-6.83-1.45-8.6-7.07-8.6C362.53,33.86,361.07,35.63,361,42.46Z"></path><path class="cls-3" d="M408,27.92c.63.19,1,.44,1,1.14v3.85c0,.7-.38,1-1.07,1h-5.76c-3.79,0-4.93.63-4.93,3.41V61.54a.83.83,0,0,1-.94,1h-5.76a.83.83,0,0,1-.94-1V35.32c0-7.53,6-8.09,10.68-8.09A39.9,39.9,0,0,1,408,27.92Z"></path></g></g></svg> 